<?xml version="1.0" encoding="utf-8"?>
<!-- Generator: Adobe Illustrator 21.0.0, SVG Export Plug-In . SVG Version: 6.00 Build 0)  -->
<svg version="1.1" id="Layer_1" xmlns="http://www.w3.org/2000/svg" xmlns:xlink="http://www.w3.org/1999/xlink" x="0px" y="0px"
	 width="630.4px" height="612.9px" viewBox="0 0 630.4 612.9" style="enable-background:new 0 0 630.4 612.9;" xml:space="preserve"
	>
<style type="text/css">
	.st0{fill:#C5C7F0;enable-background:new    ;}
	.st1{fill:#0E122C;}
	.st2{fill:#0D122E;}
	.st3{fill:#FFFFFF;}
</style>
<path id="Path_126" class="st0" d="M570.4,241.8c-16.6-32.1-42.5-58.5-68.6-82.6c-51.7-46.2-111.1-85.6-177.5-106.5
	c-30.8-9.4-63-13.5-95.2-12.2C175.2,42.9,122.4,61,81.3,96.8c40.9-35.3,94.6-53,148.2-52.9c14.5,0,28.9,1.3,43.1,4
	c67.1,11,125.5,50,175.4,94.3c24.7,22.2,47.9,46.8,67.5,73.4c9.5,12.9,17.8,26.2,24,40.9c22,50.5,14.1,107.2-15,153
	c-12.4,20.5-27.9,38.2-44.7,55.8c-22.6,23.1-47.5,44.3-74.5,61.9c-86.8,57.3-178,65.3-264.1,1.9C68.5,477.6,36.5,386,53.3,299.4
	c3-12.5,4.5-26,3.3-38.8c-1.8-26-13-49.7-14.3-75.5c-0.4-8.5,0.4-17,2.3-25.3c0.3-2.1,0.6-4.2,1.1-6.2c4.7-21.9,18.5-41.5,35.1-56.3
	c-15.5,13.5-28.2,30.9-34.3,50.7c-1.2,3.9-2.1,7.8-2.7,11.8c-4.5,16.3-3.3,34.3,0.2,51c6.6,30.5,13.2,56.7,3.1,87.3
	c-25.7,103.1,9.9,208,97.9,269.5c89.2,66.1,194.5,55.3,284.9-2.2C487.7,528,547.5,470.7,575,406.6
	C598,354.8,597.2,292.1,570.4,241.8z M81.3,96.8L81.3,96.8L81.3,96.8L81.3,96.8z M80.9,97.2c0.1-0.1,0.3-0.2,0.4-0.4v0
	C81.2,97,81,97.1,80.9,97.2L80.9,97.2z"/>
<g id="Archibus-logo-color" transform="translate(918.602 2556.308)">
	<g id="Group_79" transform="translate(141.125 7.141)">
		<path id="Path_192" class="st1" d="M-673.7-2556.7c0.2,0,0.5,0.1,0.6,0.2c0.2,0.1,0.4,0.3,0.5,0.5c0.1,0.2,0.2,0.4,0.2,0.6
			c0,0.2-0.1,0.5-0.2,0.6c-0.1,0.2-0.3,0.4-0.5,0.5c-0.2,0.1-0.4,0.2-0.6,0.2c-0.2,0-0.5-0.1-0.6-0.2c-0.2-0.1-0.4-0.3-0.5-0.5
			c-0.1-0.2-0.2-0.4-0.2-0.6c0-0.2,0.1-0.5,0.2-0.6c0.1-0.2,0.3-0.4,0.5-0.5C-674.2-2556.6-673.9-2556.7-673.7-2556.7z
			 M-673.7-2556.4c-0.2,0-0.4,0.1-0.5,0.1c-0.2,0.1-0.3,0.2-0.4,0.4c-0.1,0.2-0.1,0.3-0.1,0.5c0,0.2,0.1,0.4,0.1,0.5
			c0.1,0.2,0.2,0.3,0.4,0.4c0.2,0.1,0.3,0.1,0.5,0.1c0.2,0,0.4-0.1,0.5-0.1c0.2-0.1,0.3-0.2,0.4-0.4c0.1-0.2,0.1-0.3,0.1-0.5
			c0-0.2-0.1-0.4-0.1-0.5c-0.1-0.2-0.2-0.3-0.4-0.4C-673.4-2556.4-673.5-2556.4-673.7-2556.4z M-674.3-2554.7v-1.4h0.8
			c0.1,0,0.2,0,0.2,0.1c0.1,0.1,0.1,0.1,0.1,0.1c0,0,0.1,0.1,0.1,0.2c0,0.1,0,0.2-0.1,0.2c-0.1,0.1-0.2,0.1-0.3,0.1
			c0.1,0,0.1,0.1,0.1,0.1l0.1,0.1c0,0.1,0.1,0.1,0.1,0.2l0.2,0.3h-0.4l-0.1-0.2c0-0.1-0.1-0.2-0.2-0.3c0,0-0.1-0.1-0.2-0.1h-0.1v0.6
			L-674.3-2554.7L-674.3-2554.7z M-674.1-2555.4h0.4c0.1,0,0.1-0.1,0.1-0.1c0-0.1,0.1-0.1,0.1-0.1c0-0.1,0-0.1-0.1-0.1
			c0-0.1-0.1-0.1-0.1-0.1h-0.4V-2555.4z"/>
	</g>
	<g id="Group_81" transform="translate(0 0)">
		<g id="Group_6489" transform="translate(0)">
			<g id="Group_6488" transform="translate(0)">
				<g id="Group_6487">
					<path id="Path_39763" class="st1" d="M-663.7-2555.8h2.6l11.3,24.9h-3l-2.9-6.5h-13.5l-2.9,6.5h-2.9L-663.7-2555.8z
						 M-656.8-2540l-5.6-12.6l-5.6,12.6H-656.8z"/>
					<path id="Path_39764" class="st1" d="M-647.4-2549.2h2.7v4.7c1.2-3.1,4.1-5.1,7.4-5.1v2.9h-0.2c-4,0-7.2,2.9-7.2,8.4v7.3h-2.7
						V-2549.2z"/>
					<path id="Path_39765" class="st1" d="M-636.8-2540L-636.8-2540c0-5.3,4.2-9.6,9.5-9.6c2.7,0,5.4,1.2,7.2,3.2l-1.8,1.9
						c-1.4-1.7-3.4-2.7-5.6-2.8c-3.7,0.1-6.6,3.2-6.6,6.9v0.2c-0.2,3.8,2.8,7,6.6,7.1h0.2c2.2-0.1,4.2-1,5.6-2.7l1.8,1.6
						c-3.3,4-9.2,4.7-13.2,1.5C-635.4-2534.3-636.7-2537.1-636.8-2540z"/>
					<path id="Path_39766" class="st1" d="M-616.9-2556.7h2.7v10.7c1.2-2.3,3.7-3.7,6.3-3.6c4.4,0,7,3,7,7.3v11.3h-2.8v-10.7
						c0-3.4-1.8-5.5-5-5.5c-3-0.1-5.4,2.3-5.5,5.3v10.9h-2.7L-616.9-2556.7z"/>
					<path id="Path_39767" class="st1" d="M-597-2549.2h2.7v18.2h-2.7V-2549.2z"/>
					<path id="Path_39768" class="st1" d="M-586.7-2534.4v3.5h-2.7v-25.8h2.7v11.2c1.5-2.5,4.1-4,7-4c4.4,0,8.7,3.5,8.7,9.4v0.1
						c0,6-4.3,9.5-8.7,9.5C-582.6-2530.5-585.2-2532-586.7-2534.4z M-573.8-2540L-573.8-2540c0-4.3-3-7.1-6.4-7.1
						c-3.8,0.1-6.7,3.2-6.6,7l0,0v0.1c-0.2,3.7,2.7,6.9,6.4,7c0,0,0.1,0,0.1,0h0.1C-576.7-2533-573.8-2535.6-573.8-2540L-573.8-2540
						z"/>
					<path id="Path_39769" class="st1" d="M-568.2-2537.9v-11.3h2.7v10.7c0,3.4,1.8,5.5,5,5.5c3,0.1,5.4-2.3,5.5-5.3v-10.9h2.7v18.2
						h-2.7v-3.2c-1.3,2.3-3.7,3.6-6.3,3.6C-565.6-2530.5-568.2-2533.5-568.2-2537.9z"/>
					<path id="Path_39770" class="st1" d="M-549.5-2533.2l1.3-1.9c1.8,1.4,4,2.3,6.3,2.3c2.2,0,3.7-1.1,3.7-2.9v-0.1
						c0-1.8-2.2-2.5-4.6-3.2c-2.9-0.8-6-1.8-6-5.2v-0.1c0-3.2,2.6-5.2,6.2-5.2c2.3,0.1,4.6,0.7,6.6,2l-1.2,2.1
						c-1.6-1.1-3.5-1.7-5.4-1.8c-2.2,0-3.5,1.1-3.5,2.6v0.1c0,1.8,2.3,2.4,4.7,3.2c2.8,0.8,5.9,1.9,5.9,5.2v0.1
						c0,3.5-2.9,5.4-6.5,5.4C-544.8-2530.6-547.4-2531.6-549.5-2533.2z"/>
				</g>
				<ellipse id="Ellipse_395" class="st1" cx="-595.7" cy="-2554.7" rx="1.6" ry="1.6"/>
			</g>
		</g>
	</g>
</g>
<g id="Serraview-logo-color" transform="translate(1338 2469)">
	<g id="Group_94" transform="translate(154.176 7.122)">
		<path id="Path_283" class="st1" d="M-1318.7-2054.7c0.2,0,0.5,0.1,0.6,0.2c0.2,0.1,0.4,0.3,0.5,0.5c0.1,0.2,0.2,0.4,0.2,0.6
			c0,0.2-0.1,0.5-0.2,0.6c-0.1,0.2-0.3,0.4-0.5,0.5c-0.2,0.1-0.4,0.2-0.6,0.2c-0.2,0-0.5-0.1-0.6-0.2c-0.2-0.1-0.4-0.3-0.5-0.5
			c-0.1-0.2-0.2-0.4-0.2-0.6c0-0.2,0.1-0.5,0.2-0.6c0.1-0.2,0.3-0.4,0.5-0.5C-1319.2-2054.6-1318.9-2054.7-1318.7-2054.7z
			 M-1318.7-2054.4c-0.2,0-0.4,0.1-0.5,0.1c-0.2,0.1-0.3,0.2-0.4,0.4c-0.1,0.2-0.1,0.3-0.1,0.5c0,0.2,0.1,0.4,0.1,0.5
			c0.1,0.2,0.2,0.3,0.4,0.4c0.2,0.1,0.3,0.1,0.5,0.1c0.2,0,0.4-0.1,0.5-0.1c0.2-0.1,0.3-0.2,0.4-0.4c0.1-0.2,0.1-0.3,0.1-0.5
			c0-0.2-0.1-0.4-0.1-0.5c-0.1-0.2-0.2-0.3-0.4-0.4C-1318.3-2054.3-1318.5-2054.4-1318.7-2054.4z M-1319.3-2052.6v-1.4h0.8
			c0.1,0,0.2,0,0.2,0.1c0.1,0.1,0.1,0.1,0.1,0.1c0,0,0.1,0.1,0.1,0.2c0,0.1,0,0.2-0.1,0.2c-0.1,0.1-0.2,0.1-0.3,0.1
			c0.1,0,0.1,0.1,0.1,0.1l0.1,0.1c0,0.1,0.1,0.1,0.1,0.2l0.2,0.3h-0.4l-0.1-0.2c0-0.1-0.1-0.2-0.2-0.3c0,0-0.1-0.1-0.2-0.1h-0.1v0.6
			L-1319.3-2052.6L-1319.3-2052.6z M-1319-2053.4h0.4c0.1,0,0.1-0.1,0.1-0.1c0-0.1,0.1-0.1,0.1-0.1c0-0.1,0-0.1-0.1-0.1
			c0-0.1-0.1-0.1-0.1-0.1h-0.4V-2053.4z"/>
	</g>
	<g id="Group_96" transform="translate(0 0)">
		<g id="Group_6503" transform="translate(0 0)">
			<g id="Group_6502" transform="translate(0 0)">
				<g id="Group_6500" transform="translate(0 0.332)">
					<path id="Path_39784" class="st1" d="M-1320-2033.4l1.7-2c2.2,2.2,5.2,3.5,8.4,3.5c3.3,0,5.4-1.8,5.4-4.2v-0.1
						c0-2.3-1.2-3.6-6.4-4.6c-5.6-1.2-8.2-3-8.2-7.1v-0.1c0-3.9,3.4-6.7,8-6.7c3.1-0.1,6.2,1,8.6,3l-1.6,2.1c-2-1.7-4.5-2.6-7.1-2.6
						c-3.2,0-5.2,1.8-5.2,3.9v0.1c0,2.3,1.2,3.6,6.6,4.7c5.4,1.2,8,3.2,8,6.9v0.1c0,4.2-3.5,6.9-8.4,6.9
						C-1313.8-2029.4-1317.4-2030.8-1320-2033.4z"/>
					<path id="Path_39785" class="st1" d="M-1290.6-2031.7c2.2,0,4.3-0.9,5.7-2.6l1.7,1.5c-1.8,2.2-4.6,3.5-7.4,3.4c-5,0-9-4-9-8.9
						c0,0,0,0,0,0v-0.5c0-5.3,3.7-9.4,8.7-9.4c5.3,0,8.4,4.3,8.4,9.6c0,0.3,0,0.6-0.1,0.9h-14.4
						C-1296.8-2034.3-1294-2031.7-1290.6-2031.7z M-1285.3-2039.9c-0.3-3.3-2.2-6.1-5.8-6.1c-3.1,0-5.5,2.6-5.9,6.1H-1285.3z"/>
					<path id="Path_39786" class="st1" d="M-1279.6-2047.9h2.7v4.7c1.2-3.1,4.1-5.1,7.4-5v2.9h-0.2c-3.9,0-7.1,2.8-7.1,8.3v7.2h-2.7
						V-2047.9z"/>
					<path id="Path_39787" class="st1" d="M-1266.9-2047.9h2.7v4.7c1.2-3.1,4.1-5.1,7.4-5v2.9h-0.2c-3.9,0-7.1,2.8-7.1,8.3v7.2h-2.7
						V-2047.9z"/>
					<path id="Path_39788" class="st1" d="M-1256.3-2035L-1256.3-2035c0-3.9,3.2-6,7.7-6c1.9,0,3.7,0.2,5.5,0.8v-0.6
						c0-3.2-1.9-4.9-5.3-4.9c-1.9,0-3.8,0.5-5.5,1.3l-0.8-2.2c2-1,4.3-1.5,6.6-1.5c2.1-0.1,4.2,0.6,5.9,2c1.3,1.4,2,3.4,1.9,5.3
						v11.1h-2.6v-2.7c-1.6,2-4,3.2-6.5,3.1C-1252.9-2029.4-1256.3-2031.3-1256.3-2035z M-1243-2036.4v-1.7c-1.7-0.5-3.5-0.8-5.3-0.8
						c-3.3,0-5.3,1.5-5.3,3.6v0.1c0,2.3,2.1,3.6,4.6,3.6C-1245.7-2031.6-1243-2033.6-1243-2036.4L-1243-2036.4z"/>
					<path id="Path_39789" class="st1" d="M-1238.9-2047.9h3l6.1,15l6.1-15h2.9l-7.8,18.2h-2.4L-1238.9-2047.9z"/>
					<path id="Path_39790" class="st1" d="M-1218.1-2047.9h2.7v18.1h-2.7V-2047.9z"/>
					<path id="Path_39791" class="st1" d="M-1203.6-2031.7c2.2,0,4.3-0.9,5.7-2.6l1.7,1.5c-1.8,2.2-4.6,3.5-7.4,3.4c-5,0-9-4-9-8.9
						c0,0,0,0,0,0v-0.5c0-5.3,3.7-9.4,8.7-9.4c5.3,0,8.4,4.3,8.4,9.6c0,0.3,0,0.6-0.1,0.9h-14.4
						C-1209.8-2034.3-1207-2031.7-1203.6-2031.7z M-1198.3-2039.9c-0.3-3.3-2.2-6.1-5.8-6.1c-3.1,0-5.5,2.6-5.9,6.1H-1198.3z"/>
					<path id="Path_39792" class="st1" d="M-1195.1-2047.9h2.9l4.7,14.5l4.9-14.6h2.2l4.9,14.6l4.7-14.5h2.8l-6.4,18.2h-2.3
						l-4.9-14.3l-4.9,14.3h-2.3L-1195.1-2047.9z"/>
				</g>
				<g id="Group_6501" transform="translate(101.647)">
					<ellipse id="Ellipse_397" class="st1" cx="-1318.4" cy="-2053.1" rx="1.6" ry="1.6"/>
				</g>
			</g>
		</g>
	</g>
</g>
<g id="iO-logo-color" transform="translate(935.849 2670.382)">
	<path id="Path_231" class="st1" d="M-419.1-2247c-6.5,0-11.9,5.3-11.9,11.9s5.3,11.9,11.9,11.9c6.5,0,11.9-5.3,11.9-11.9
		c0,0,0,0,0,0C-407.3-2241.7-412.6-2247-419.1-2247z M-416.3-2238.1c-0.9,2.8-1.7,5.5-2.6,8.3l-0.2,0.9c0,0.1-0.1,0.4,0.2,0.5
		c0.2,0.1,0.4,0.1,0.5-0.1c0.5-0.5,0.9-1,1.2-1.5c0.1-0.2,0.8-0.7,0.4,0.2c-0.4,1.1-2.4,3.7-4.7,3.1c-0.7-0.2-1.1-0.8-1.1-1.5
		c0-0.4,0.1-0.8,0.2-1.1l1.9-6c0.1-0.1,0.1-0.3,0.1-0.4c0.4-1.4,0.2-1.7-1.3-1.8c0.1-0.1,0.2-0.4,0.4-0.4c1.7-0.3,3.3-0.5,5-0.8
		C-416.2-2238.6-416.2-2238.3-416.3-2238.1L-416.3-2238.1z M-417.1-2240.8c-1,0-1.9-0.8-1.9-1.9c0-1,0.8-1.9,1.9-1.9
		c1,0,1.9,0.8,1.9,1.9l0,0C-415.3-2241.7-416.1-2240.8-417.1-2240.8L-417.1-2240.8z"/>
	<path id="Path_232" class="st1" d="M-356.9-2239.7L-356.9-2239.7c-1.6-2.3-4.2-3.6-6.9-3.7c-4.3,0.1-7.8,3.6-7.8,7.9
		c0,0.1,0,0.1,0,0.2c0,4.4,3,8.1,7.6,8.1c3.2,0,5.3-1.4,7.2-3.8h0.1v5c-2,1.4-4.5,2.2-7,2.2c-6.3,0.2-11.6-4.8-11.7-11.1
		c0-0.2,0-0.3,0-0.5c0-6.4,5.2-11.6,11.7-11.6c0,0,0,0,0,0c2.4,0,4.8,0.8,6.8,2.2L-356.9-2239.7z"/>
	<path id="Path_233" class="st1" d="M-350.8-2234.4c-0.1,3.9,2.9,7.2,6.9,7.3c0.1,0,0.2,0,0.3,0c3.2,0,5.2-1.9,6.7-4.5l3.2,1.8
		c-1.9,3.9-5.8,6.3-10.1,6.2c-6.5,0-10.8-5-10.8-11.4c0-6.5,3.8-11.9,10.6-11.9c7,0,10.8,5.8,10.4,12.4L-350.8-2234.4z
		 M-337.5-2237.6c-0.5-3.2-3.2-5.7-6.5-5.7c-3.3,0.1-6.1,2.5-6.7,5.7H-337.5z"/>
	<g id="Group_87" transform="translate(23.637 0)">
		<path id="Path_234" class="st1" d="M-411.2-2246.1v-6.3c0-3.7,0-5.7,3.1-5.7c0.9,0,1.8,0.2,2.6,0.5v-3.6c-0.9-0.3-1.8-0.4-2.7-0.4
			c-2.3-0.1-4.4,0.9-5.8,2.7c-1,1.5-1,3.7-1,5.5v7.6h-7.9v-6.3c0-3.7,0-5.7,3.1-5.7c0.9,0,1.8,0.2,2.6,0.5v-3.6
			c-0.9-0.3-1.8-0.4-2.7-0.4c-2.3-0.1-4.4,0.9-5.8,2.7c-1,1.5-1,3.7-1,5.5v7.6h-4.2v3.2h4.2v18.6h3.8v-18.9h7.9v18.6h3.8v-18.6h5.3
			v18.6h3.7v-21.8H-411.2z"/>
		<path id="Path_235" class="st1" d="M-406.4-2252c0,1.3,1,2.3,2.3,2.3c1.3,0,2.3-1,2.3-2.2c0,0,0,0,0-0.1c0-1.3-1-2.3-2.3-2.3
			C-405.4-2254.3-406.4-2253.3-406.4-2252z"/>
	</g>
	<g id="Group_88" transform="translate(96.704 14.944)">
		<path id="Path_236" class="st1" d="M-429.4-2261.7c0.3,0,0.6,0.1,0.8,0.2c0.2,0.1,0.4,0.3,0.6,0.6c0.1,0.2,0.2,0.5,0.2,0.8
			c0,0.3-0.1,0.6-0.2,0.8c-0.1,0.2-0.3,0.4-0.6,0.6c-0.2,0.1-0.5,0.2-0.8,0.2c-0.3,0-0.6-0.1-0.8-0.2c-0.2-0.1-0.4-0.3-0.6-0.6
			c-0.1-0.2-0.2-0.5-0.2-0.8c0-0.3,0.1-0.6,0.2-0.8c0.1-0.2,0.3-0.4,0.6-0.6C-430-2261.6-429.7-2261.6-429.4-2261.7z M-429.4-2261.4
			c-0.2,0-0.4,0.1-0.6,0.1c-0.2,0.1-0.4,0.3-0.5,0.5c-0.1,0.2-0.2,0.4-0.1,0.6c0,0.2,0.1,0.4,0.1,0.6c0.1,0.2,0.3,0.4,0.5,0.5
			c0.2,0.1,0.4,0.2,0.6,0.1c0.2,0,0.4-0.1,0.6-0.1c0.2-0.1,0.4-0.3,0.5-0.5c0.1-0.2,0.2-0.4,0.1-0.6c0-0.2-0.1-0.4-0.1-0.6
			c-0.1-0.2-0.3-0.4-0.5-0.5C-429-2261.3-429.2-2261.4-429.4-2261.4z M-430.1-2259.1v-1.7h0.9c0.1,0,0.2,0,0.3,0.1
			c0.1,0.1,0.1,0.1,0.1,0.1c0.1,0.1,0.1,0.1,0.1,0.2c0,0.1-0.1,0.2-0.1,0.3c-0.1,0.1-0.2,0.1-0.4,0.1c0.1,0,0.1,0.1,0.1,0.1l0.1,0.1
			c0.1,0.1,0.1,0.1,0.1,0.2l0.2,0.4h-0.4l-0.1-0.3c0-0.1-0.1-0.3-0.2-0.4c-0.1-0.1-0.1-0.1-0.2-0.1h-0.1v0.7L-430.1-2259.1
			L-430.1-2259.1z M-429.8-2260.2h0.5c0.1,0,0.1-0.1,0.1-0.1c0-0.1,0.1-0.1,0.1-0.1s0-0.1-0.1-0.1c0-0.1-0.1-0.1-0.1-0.1h-0.5
			V-2260.2z"/>
	</g>
</g>
<g id="Group_108" transform="translate(1155.863 2449.217)">
	<path id="woman_and_laptop" class="st2" d="M-760.9-2156.8c-0.1-2.7-0.2-5.4-0.4-8.1c-0.2-2.6-0.8-5.1-2-7.3
		c-1-2.1-2.7-3.7-4.9-4.6c-2.3-0.7-4.7-0.6-6.8,0.4c-2.9,1.3-5.5,3.1-7.7,5.3c-4.7,4.6-10,8.6-15.7,11.9c-9,5.3-19.2,7.9-29.6,7.6
		c-4-0.1-8-0.6-11.9-1.5c-7.8-1.8-15.2-4.7-22.3-8.4c-5-2.6-9.8-5.6-14.6-8.6c-10.4-6.4-20.7-12.8-31.4-18.7
		c-4.8-2.8-9.9-5.1-15.2-6.9c-4.5-1.6-9.3-2.2-14.1-1.8c-3.9,0.4-7.7,2-10.6,4.7c-2.8,2.6-5.1,5.9-6.6,9.4c-3,6.9-4.3,14.2-5.1,21.6
		c-0.4,4-0.5,8-0.4,12c0.1,3,0.2,6,0.3,9c0.4,6,1.2,12,2.4,17.9c1.7,8.2,4.3,16.1,8,23.7c7.4,15.1,18.6,27.9,32.6,37.1
		c13.7,9.2,28.9,13.5,45.3,14c4.2,0.1,8.3,0,12.4-0.4c5.4-0.5,10.8-1.4,16.1-2.7c11.7-2.8,22.9-7.5,33.2-13.8
		c10.4-6.2,19.7-14.2,27.5-23.5c7.9-9.4,13.7-20.3,17.1-32.1c2.7-10.2,4.1-20.6,4.1-31.2C-760.9-2153.4-760.8-2155.1-760.9-2156.8z"
		/>
	<g id="Group_107" transform="translate(26.538 64.543)">
		<path id="Path_341" class="st3" d="M-817.5-2178.8c0-1.3-0.2-2.5-0.5-3.8c-1.7-7.1-8.8-11.4-15.9-9.7c-1.3,0.3-2.5,0.8-3.6,1.5
			c-3.9,2.2-6.4,6.3-6.6,10.7c-0.7,4.9,1.4,9.8,5.3,12.7c4.8,3.9,11.7,3.5,16-0.8c0.3-0.3,0.6-0.7,1-1.2v4h4.2c0-0.2,0-0.4,0-0.6
			C-817.4-2170.3-817.4-2174.6-817.5-2178.8z M-825.4-2170.8c-1.6,1.4-3.7,2.1-5.8,2c-2.9-0.2-5.6-1.8-7-4.4
			c-2.3-3.9-1.9-8.8,1-12.3c2.9-3.5,8.1-4,11.7-1.1c0.2,0.1,0.3,0.3,0.5,0.4c4.2,4,4.3,10.6,0.3,14.8
			C-825-2171.3-825.2-2171-825.4-2170.8L-825.4-2170.8z"/>
		<path id="Path_342" class="st3" d="M-842.8-2190.9c-0.9,1.2-1.7,2.3-2.6,3.4c-1.4-0.8-3-1.2-4.5-1c-3.3,0.1-6,2.9-6,6.2
			c-0.1,4.1,0,8.1,0,12.2c0,1.3,0,2.6,0,3.9v0.8h-4.4v-0.8c0-5.2,0-10.4,0-15.6c-0.2-5.8,4.5-10.7,10.3-10.8c0.1,0,0.2,0,0.3,0
			c2.2-0.1,4.4,0.4,6.3,1.4C-843.2-2191.1-843-2191-842.8-2190.9z"/>
		<path id="Path_343" class="st3" d="M-863.4-2175.9c0,5.5-3.1,9.7-8.3,10.8c-4.4,1-8.4,0.1-11.5-3.5c-1.6-1.8-2.5-4.2-2.4-6.6
			c0-5.5,0-10.9,0-16.4c0-0.1,0-0.2,0-0.3h4.3v0.8c0,5.1,0,10.3,0,15.4c-0.1,3.1,2,5.8,4.9,6.5c3.5,1,7.1-0.9,8.2-4.4
			c0.2-0.7,0.3-1.4,0.3-2.2c0-5.1,0-10.1,0-15.2v-0.9h4.5v0.7C-863.4-2186.2-863.4-2181-863.4-2175.9z"/>
		<path id="Path_344" class="st3" d="M-885.2-2165.8c-1,0.3-1.9,0.6-2.9,0.8c-3.6,0.8-7.3-0.2-10.1-2.7c-2.3-2.1-3.6-5.2-3.5-8.3
			c0-7,0-14,0-21c0-0.2,0-0.4,0-0.6h4.3v5.6h6.2v4.2h-6.2c0,0.2,0,0.4,0,0.5c0,3.8,0,7.5,0,11.3c-0.1,3.2,2,6,5.1,6.7
			c1.5,0.3,3,0.2,4.4-0.3C-886.9-2168.3-886.1-2167.1-885.2-2165.8z"/>
		<path id="Path_345" class="st3" d="M-904.8-2182.5c-1.5-6.6-7.7-10.9-14.4-10.1c-6.8,0.8-11.9,6.6-11.8,13.5c0,8.2,0,16.5,0,24.7
			v0.7h4.3v-15.4c0.2,0.2,0.3,0.3,0.4,0.3c4.4,4.9,11.8,5.4,16.9,1.2C-904.7-2171.4-903.4-2176.6-904.8-2182.5z M-911.3-2171.8
			c-3,3.6-8.3,4-11.9,1c-0.7-0.6-1.4-1.4-1.9-2.2c-1.2-2-1.7-4.2-1.6-6.5c0.1-2.4,1.2-4.7,2.9-6.4c3.1-3.3,8.4-3.5,11.7-0.4
			c0.3,0.3,0.6,0.6,0.9,0.9C-907.9-2181.4-908-2175.7-911.3-2171.8z"/>
		<path id="Path_346" class="st3" d="M-939.1-2172.5c-2,2.8-5.4,4.2-8.8,3.4c-2.9-0.4-5.3-2.2-6.6-4.8l21.2-6.5
			c-0.2-1-0.4-1.9-0.6-2.7c-1.9-6.9-9.1-11-16-9.1c-0.6,0.2-1.2,0.4-1.8,0.6c-6.2,2.9-9.5,9.8-7.8,16.5c2.7,10.8,15.1,12.8,21.4,7.8
			c1.7-1.4,3.1-3.1,4-5.1c-1.5-0.1-2.9-0.3-4.3-0.4C-938.7-2172.8-938.9-2172.7-939.1-2172.5z M-948.8-2188.1
			c5.1-1.6,9.1,2.1,10.2,5.1l-16.8,5.1C-955.9-2182.4-953.1-2186.6-948.8-2188.1z"/>
	</g>
</g>
<g id="teem-logo-color" transform="translate(1410.252 2694.301)">
	<g id="Group_99" transform="translate(107.41 8.352)">
		<path id="Path_319" class="st1" d="M-1371.5-2554.7c0.3,0,0.5,0.1,0.7,0.2c0.2,0.1,0.4,0.3,0.5,0.5c0.1,0.2,0.2,0.5,0.2,0.7
			c0,0.3-0.1,0.5-0.2,0.7c-0.1,0.2-0.3,0.4-0.5,0.5c-0.2,0.1-0.5,0.2-0.7,0.2c-0.3,0-0.5-0.1-0.7-0.2c-0.2-0.1-0.4-0.3-0.5-0.5
			c-0.1-0.2-0.2-0.5-0.2-0.7c0-0.3,0.1-0.5,0.2-0.7c0.1-0.2,0.3-0.4,0.5-0.5C-1372-2554.6-1371.8-2554.7-1371.5-2554.7z
			 M-1371.5-2554.3c-0.2,0-0.4,0.1-0.6,0.1c-0.2,0.1-0.3,0.3-0.5,0.5c-0.1,0.2-0.2,0.4-0.1,0.6c0,0.2,0.1,0.4,0.1,0.6
			c0.1,0.2,0.3,0.3,0.5,0.5c0.2,0.1,0.4,0.2,0.6,0.1c0.2,0,0.4-0.1,0.6-0.1c0.2-0.1,0.3-0.3,0.5-0.5c0.1-0.2,0.2-0.4,0.1-0.6
			c0-0.2-0.1-0.4-0.1-0.6c-0.1-0.2-0.3-0.3-0.5-0.5C-1371.1-2554.3-1371.3-2554.3-1371.5-2554.3z M-1372.2-2552.3v-1.6h0.9
			c0.1,0,0.2,0,0.3,0.1c0.1,0.1,0.1,0.1,0.1,0.1c0.1,0.1,0.1,0.1,0.1,0.2c0,0.1-0.1,0.2-0.1,0.3c-0.1,0.1-0.2,0.1-0.3,0.1
			c0.1,0,0.1,0.1,0.1,0.1l0.1,0.1c0.1,0.1,0.1,0.1,0.1,0.2l0.2,0.3h-0.4l-0.1-0.3c0-0.1-0.1-0.2-0.2-0.3c-0.1-0.1-0.1-0.1-0.2-0.1
			h-0.1v0.7L-1372.2-2552.3L-1372.2-2552.3z M-1371.9-2553.2h0.5c0.1,0,0.1-0.1,0.1-0.1c0-0.1,0.1-0.1,0.1-0.1c0-0.1,0-0.1-0.1-0.1
			c0-0.1-0.1-0.1-0.1-0.1h-0.5V-2553.2z"/>
	</g>
	<g id="Group_102" transform="translate(0 0)">
		<g id="Group_100">
			<path id="Path_320" class="st1" d="M-1351.1-2532.1c-0.9-0.5-2-0.1-2.5,0.8c-1.2,2.2-3.7,3.4-6.1,2.8c-2.5-0.5-4.2-2.7-4.2-5.2
				v-9.2h9.1c0.7,0.1,1.3-0.3,1.7-0.9c0.3-0.6,0.3-1.3,0-1.9c-0.3-0.6-1-0.9-1.7-0.9h-9.1v-6.4c-0.1-1-0.9-1.7-1.9-1.7
				c-1,0-1.8,0.8-1.9,1.8v6.4h-3.4c-0.7,0-1.3,0.3-1.7,0.9c-0.3,0.6-0.3,1.3,0,1.8c0.4,0.6,1,0.9,1.7,0.9h3.4v9.2
				c0.1,4.2,3,7.8,7.1,8.7c4.1,1,8.4-1,10.4-4.7C-1349.8-2530.6-1350.1-2531.7-1351.1-2532.1
				C-1351-2532.1-1351-2532.1-1351.1-2532.1"/>
			<path id="Path_321" class="st1" d="M-1304.3-2541.5c-2.1-3.1-5.7-4.9-9.4-4.9l0,0c-4.4,0-8.4,2.5-10.2,6.4c-0.4,0.9,0,2,0.9,2.4
				l15.2,6.7c-1.4,1.8-3.6,2.8-5.9,2.8c-2.7,0.1-5.3-0.7-7.4-2.2c-0.5-0.4-1.3-0.5-1.9-0.3c-0.6,0.3-1.1,0.8-1.1,1.5
				c-0.1,0.7,0.2,1.3,0.8,1.7c2.8,2.1,6.2,3.1,9.7,3c4.3,0,8.3-2.4,10.2-6.3l0.1-0.1l0.1-0.1
				C-1301.8-2534.5-1302.2-2538.4-1304.3-2541.5z M-1306.3-2534.4l-13.3-5.8c2.2-2.6,5.9-3.4,9-2
				C-1307.5-2540.9-1305.7-2537.7-1306.3-2534.4L-1306.3-2534.4z"/>
			<path id="Path_322" class="st1" d="M-1276-2546.4c-2.9,0-5.6,1.3-7.3,3.5c-2.5-3.1-6.6-4.3-10.3-3.1c-3.7,1.1-6.2,4.6-6.3,8.4v11
				c0.1,1,0.9,1.7,1.9,1.8c1,0,1.8-0.8,1.9-1.8v-11c0.1-3,2.6-5.4,5.7-5.3c2.9,0.1,5.2,2.4,5.3,5.3v11c0.1,1,0.9,1.7,1.9,1.8
				c1,0,1.8-0.8,1.9-1.8v-11c0.1-3,2.6-5.4,5.7-5.3c2.9,0.1,5.2,2.4,5.3,5.3v11c0.1,1,0.9,1.7,1.9,1.7c1,0,1.8-0.7,1.9-1.7v-11
				C-1266.9-2542.5-1271-2546.5-1276-2546.4C-1276-2546.4-1276-2546.4-1276-2546.4"/>
			<path id="Path_323" class="st1" d="M-1328-2530.8c-0.6-0.3-1.3-0.1-1.9,0.3c-2.1,1.6-4.8,2.4-7.4,2.2c-2.3,0-4.4-1-5.9-2.8
				l15.2-6.7c0.5-0.2,0.8-0.5,0.9-1c0.2-0.5,0.2-1-0.1-1.4c-2.7-5.5-9.3-7.9-14.9-5.5c-5.5,2.3-8.1,8.6-5.8,14.1
				c0,0.1,0.1,0.2,0.1,0.3l0.1,0.1l0.1,0.1c1.9,3.9,5.9,6.4,10.2,6.3c3.5,0.2,6.9-0.9,9.7-3c0.5-0.4,0.9-1,0.8-1.7
				C-1326.9-2530-1327.4-2530.6-1328-2530.8z M-1340.4-2542.2c3.1-1.4,6.8-0.5,9,2.1l-13.3,5.8
				C-1345.3-2537.6-1343.5-2540.9-1340.4-2542.2z"/>
		</g>
	</g>
</g>
<g id="Group_111" transform="translate(1158 2381.124)">
	<g id="Group_109" transform="translate(45.714 11.307)">
		<path id="Path_347" class="st1" d="M-716.5-2229.6c-1.4,1.3-3.2,2-5.1,2c-3.8,0-6.6-3-6.6-7.1c-0.2-3.6,2.6-6.7,6.2-6.8
			c0.1,0,0.2,0,0.3,0c1.8,0,3.5,0.6,4.8,1.7l0.3,0.3l1.1-1.3l-0.2-0.2c-1.6-1.5-3.8-2.2-6-2.1c-4.5,0-8.3,3.6-8.3,8.1
			c0,0.1,0,0.2,0,0.4c-0.2,4.6,3.4,8.5,8,8.7c0.1,0,0.2,0,0.4,0c2.4,0,4.6-0.9,6.3-2.5l0.2-0.3l-1.1-1.2L-716.5-2229.6z"/>
		<path id="Path_348" class="st1" d="M-704.9-2243.1c-4.6,0-8.4,3.7-8.5,8.3c0,0.1,0,0.1,0,0.2c-0.2,4.7,3.5,8.6,8.2,8.7
			c4.7,0.2,8.6-3.5,8.7-8.2c0-0.2,0-0.4,0-0.6c0.1-4.6-3.6-8.5-8.3-8.5C-704.7-2243.1-704.8-2243.1-704.9-2243.1z M-704.9-2227.5
			c-3.8-0.1-6.7-3.2-6.7-6.9c0,0,0-0.1,0-0.1c-0.1-3.7,2.8-6.7,6.5-6.8c3.7-0.1,6.7,2.8,6.8,6.5c0,0.1,0,0.2,0,0.3
			c0.1,3.8-2.8,6.9-6.5,7.1C-704.8-2227.5-704.8-2227.5-704.9-2227.5L-704.9-2227.5z"/>
		<path id="Path_349" class="st1" d="M-680.9-2229.9c0,0.2,0,0.4,0,0.6c-0.2-0.3-0.4-0.6-0.6-0.8l-9.2-12.7h-1.5v17.4l1.7-1.3v-12.2
			c0-0.2,0-0.4,0-0.6c0.2,0.3,0.4,0.6,0.6,0.8l9.2,12.7h1.5v-17.6l-1.7,1.3L-680.9-2229.9z"/>
		<path id="Path_350" class="st1" d="M-668.2-2242.8h-5.4v16.7h5.4c5.1,0,8.3-3.2,8.3-8.4C-659.8-2239.6-663-2242.8-668.2-2242.8z
			 M-671.8-2241.1h3.5c4.2,0,6.7,2.5,6.7,6.7s-2.5,6.7-6.7,6.7h-3.5V-2241.1z"/>
		<path id="Path_351" class="st1" d="M-654.2-2233.7h6.2l1.4-1.7h-7.6v-5.8h7.5l1.4-1.7h-10.7v16.7h9.7l1.4-1.7h-9.4L-654.2-2233.7z
			"/>
		<path id="Path_352" class="st1" d="M-629.6-2229.6c-1.4,1.3-3.2,2-5.1,2c-3.8,0-6.6-3-6.6-7.1c-0.2-3.6,2.6-6.7,6.2-6.8
			c0.1,0,0.2,0,0.3,0c1.8,0,3.5,0.6,4.8,1.7l0.3,0.3l1.1-1.3l-0.2-0.2c-1.6-1.5-3.8-2.2-6-2.1c-4.5,0-8.3,3.6-8.3,8.2
			c0,0.1,0,0.2,0,0.4c-0.2,4.6,3.4,8.5,8,8.7c0.1,0,0.2,0,0.4,0c2.4,0,4.6-0.9,6.3-2.5l0.2-0.3l-1.1-1.2L-629.6-2229.6z"/>
		<path id="Path_353" class="st1" d="M-617.9-2243.1c-4.6,0-8.4,3.7-8.5,8.3c0,0.1,0,0.1,0,0.2c-0.2,4.7,3.4,8.6,8.1,8.8
			c4.7,0.2,8.6-3.4,8.8-8.1c0-0.2,0-0.5,0-0.7c0.1-4.6-3.6-8.5-8.3-8.5C-617.8-2243.1-617.9-2243.1-617.9-2243.1z M-617.9-2227.5
			c-3.8-0.1-6.7-3.2-6.7-6.9c0,0,0-0.1,0-0.1c-0.1-3.7,2.8-6.7,6.5-6.8c3.7-0.1,6.7,2.8,6.8,6.5c0,0.1,0,0.2,0,0.3
			c0.1,3.8-2.8,6.9-6.5,7.1C-617.9-2227.5-617.9-2227.5-617.9-2227.5L-617.9-2227.5z"/>
	</g>
	<g id="Group_110" transform="translate(0 0)">
		<path id="Path_354" class="st1" d="M-702.1-2216.7l3.8-6.5v0l2.4-4.2L-702.1-2216.7z"/>
		<path id="Path_355" class="st1" d="M-718.7-2232L-718.7-2232l-6.5-11.2l0,0l-4.8,4.8l0,0l8.6,14.9l3.8-6.5L-718.7-2232z"/>
		<path id="Path_356" class="st1" d="M-717-2229.7L-717-2229.7l-3.8,6.5l0,0l-8.4,14.6l11.3-6.5l4.7-8.1L-717-2229.7z"/>
		<path id="Path_357" class="st1" d="M-702.1-2216.7L-702.1-2216.7l3.8-6.5v0L-702.1-2216.7z"/>
		<path id="Path_358" class="st1" d="M-716.1-2215.8L-716.1-2215.8l6.5,3.8h0l14.6,8.4l-6.5-11.3l-8.1-4.7L-716.1-2215.8z"/>
		<path id="Path_359" class="st1" d="M-697.7-2222.8l-3.7,6.5l7.6,13.1l4.8-4.8l0,0l0,0l0,0L-697.7-2222.8z"/>
		<path id="Path_360" class="st1" d="M-703.1-2230.7l-21.1-12.2l6.5,11.3l8.1,4.7L-703.1-2230.7z"/>
		<path id="Path_361" class="st1" d="M-729.6-2207.5l4.7,4.7l0,0l0,0l14.9-8.6l-6.5-3.8L-729.6-2207.5z"/>
		<path id="Path_362" class="st1" d="M-689.6-2238.9L-689.6-2238.9l-4.7-4.8l0,0l0,0l0,0l-14.9,8.6l6.5,3.7L-689.6-2238.9z"/>
		<path id="Path_363" class="st1" d="M-702.1-2216.7l6.2-10.7l5.9-10.4l-11.2,6.5l-4.7,8.1L-702.1-2216.7z"/>
	</g>
</g>
<g id="HippoCMMS-logo-color" transform="translate(1285.353 2796)">
	<g id="Group_82" transform="translate(156.508 7.439)">
		<path id="Path_210" class="st1" d="M-812.7-2521.7c0.2,0,0.5,0.1,0.6,0.2c0.2,0.1,0.4,0.3,0.5,0.5c0.1,0.2,0.2,0.4,0.2,0.6
			c0,0.2-0.1,0.5-0.2,0.6c-0.1,0.2-0.3,0.4-0.5,0.5c-0.2,0.1-0.4,0.2-0.6,0.2c-0.2,0-0.5-0.1-0.6-0.2c-0.2-0.1-0.4-0.3-0.5-0.5
			c-0.1-0.2-0.2-0.4-0.2-0.6c0-0.2,0.1-0.5,0.2-0.6c0.1-0.2,0.3-0.4,0.5-0.5C-813.2-2521.6-812.9-2521.6-812.7-2521.7z
			 M-812.7-2521.4c-0.2,0-0.4,0.1-0.5,0.1c-0.2,0.1-0.3,0.2-0.4,0.4c-0.1,0.2-0.1,0.3-0.1,0.5c0,0.2,0.1,0.4,0.1,0.5
			c0.1,0.2,0.2,0.3,0.4,0.4c0.2,0.1,0.3,0.1,0.5,0.1c0.2,0,0.4-0.1,0.5-0.1c0.2-0.1,0.3-0.2,0.4-0.4c0.1-0.2,0.1-0.3,0.1-0.5
			c0-0.2-0.1-0.4-0.1-0.5c-0.1-0.2-0.2-0.3-0.4-0.4C-812.3-2521.4-812.5-2521.4-812.7-2521.4z M-813.3-2519.6v-1.4h0.8
			c0.1,0,0.2,0,0.2,0.1c0.1,0.1,0.1,0.1,0.1,0.1c0,0,0.1,0.1,0.1,0.2c0,0.1,0,0.2-0.1,0.2c-0.1,0.1-0.2,0.1-0.3,0.1
			c0.1,0,0.1,0.1,0.1,0.1l0.1,0.1c0,0.1,0.1,0.1,0.1,0.2l0.2,0.3h-0.4l-0.1-0.2c0-0.1-0.1-0.2-0.2-0.3c0,0-0.1-0.1-0.2-0.1h-0.1v0.6
			L-813.3-2519.6L-813.3-2519.6z M-813-2520.4h0.4c0.1,0,0.1-0.1,0.1-0.1c0-0.1,0.1-0.1,0.1-0.1c0-0.1,0-0.1-0.1-0.1
			c0-0.1-0.1-0.1-0.1-0.1h-0.4L-813-2520.4z"/>
	</g>
	<g id="Group_86" transform="translate(0 0)">
		<g id="Group_84">
			<path id="XMLID_11_" class="st1" d="M-795.4-2519c0,1.5,1.2,2.7,2.7,2.7s2.7-1.2,2.7-2.7s-1.2-2.7-2.7-2.7
				C-794.2-2521.7-795.4-2520.5-795.4-2519C-795.4-2519-795.4-2519-795.4-2519"/>
			<path id="XMLID_10_" class="st1" d="M-814-2520.8v24.8h4.3v-13.9c0.9-0.4,1.9-0.6,2.9-0.5c4,0,4.4,1.7,4.4,3.3v11.2h4.3v-10.8
				c0-4.7-2.9-7.4-8-7.4c-1.2,0-2.5,0.2-3.6,0.6v-7.2H-814z"/>
			<path id="Path_211" class="st1" d="M-743.6-2514.2c-5.5,0-8.5,3.3-8.5,9.3s3,9.3,8.5,9.3c5.5,0,8.5-3.3,8.5-9.3
				S-738.1-2514.2-743.6-2514.2z M-743.6-2499.3c-2.6,0-4.2-0.9-4.2-5.7c0-4.7,1.6-5.7,4.2-5.7c2.6,0,4.2,0.9,4.2,5.7
				C-739.4-2500.2-741.1-2499.3-743.6-2499.3z"/>
			<path id="Path_212" class="st1" d="M-761.8-2514.2c-5.6,0-7.6,3.2-7.6,6v18.9h4.3v-6.6c1,0.2,1.9,0.3,2.9,0.4
				c5.4,0,8.4-3.2,8.4-9.1C-753.7-2513.3-759.3-2514.2-761.8-2514.2z M-762.3-2499c-0.9,0-1.8-0.1-2.7-0.2v-9.4
				c0-1.5,1.3-1.9,3.2-1.9c2.8,0,3.7,1.9,3.7,6C-758.1-2500.2-759.8-2499-762.3-2499z"/>
			<path id="Path_213" class="st1" d="M-779.6-2514.2c-5.6,0-7.6,3.2-7.6,6v18.9h4.3v-6.6c1,0.2,1.9,0.3,2.9,0.4
				c5.4,0,8.4-3.2,8.4-9.1C-771.5-2513.3-777.2-2514.2-779.6-2514.2z M-780.2-2499c-0.9,0-1.8-0.1-2.7-0.2v-9.4
				c0-1.5,1.3-1.9,3.2-1.9c2.8,0,3.7,1.9,3.7,6C-775.9-2500.2-777.6-2499-780.2-2499z"/>
			<rect id="XMLID_9_" x="-794.8" y="-2514" class="st1" width="4.3" height="18"/>
			<g id="Group_83" transform="translate(83.584 7.439)">
				<path id="XMLID_8_" class="st1" d="M-754.5-2516.7c0,3.2,2.7,4,5.3,4.7c2.4,0.7,4.7,1.3,4.7,3.9c0,2-1.8,3.2-4.7,3.2
					c-1.8,0-3.6-0.4-5.2-1.3l-0.3-0.2v1.9l0.1,0.1c1.7,0.8,3.6,1.2,5.4,1.2c4,0,6.3-1.8,6.3-4.9c0-3.8-3.1-4.7-5.9-5.5
					c-2.2-0.6-4.2-1.2-4.2-3.1c0-2,1.5-3.2,4.3-3.2c1.6,0,3.1,0.4,4.5,1.1l0.3,0.2v-1.8l-0.1-0.1c-1.5-0.7-3.1-1.1-4.7-1.1
					C-753-2521.7-754.5-2519.1-754.5-2516.7"/>
				<path id="XMLID_7_" class="st1" d="M-814-2512.3c0,7.6,4.5,9.2,8.4,9.2c1.8,0,3.6-0.4,5.3-1l0.1-0.1v-1.7l-0.3,0.1
					c-1.6,0.6-3.3,0.9-5,0.9c-4.6,0-6.7-2.5-6.7-7.6c0-5.1,2.2-7.6,6.7-7.6c1.7,0,3.4,0.4,5,1l0.3,0.1v-1.7l-0.1-0.1
					c-1.7-0.7-3.5-1-5.3-1C-809.5-2521.7-814-2520-814-2512.3"/>
				<path id="XMLID_6_" class="st1" d="M-760.5-2521.4l-6.4,9.4l-6.4-9.4h-1.8v18h1.7v-14.9l6.5,9.3l6.4-9.3v14.9h1.8v-18H-760.5z"
					/>
				<path id="XMLID_5_" class="st1" d="M-781.5-2521.4l-6.4,9.4l-6.4-9.4h-1.8v18h1.8v-14.9l6.4,9.3l6.4-9.3v14.9h1.8v-18H-781.5z"
					/>
			</g>
		</g>
	</g>
</g>
<g id="ManagerPlus-logo-color" transform="translate(1416.377 2579.889)">
	<g id="Group_90" transform="translate(194.113 5.975)">
		<path id="Path_254" class="st1" d="M-1067.7-2028.7c0.2,0,0.5,0.1,0.6,0.2c0.2,0.1,0.3,0.3,0.5,0.5c0.1,0.2,0.2,0.4,0.2,0.6
			c0,0.2-0.1,0.5-0.2,0.6c-0.1,0.2-0.3,0.4-0.5,0.5c-0.2,0.1-0.4,0.2-0.6,0.2c-0.2,0-0.5-0.1-0.6-0.2c-0.2-0.1-0.4-0.3-0.5-0.5
			c-0.1-0.2-0.2-0.4-0.2-0.6c0-0.2,0.1-0.5,0.2-0.6c0.1-0.2,0.3-0.4,0.5-0.5C-1068.2-2028.6-1067.9-2028.7-1067.7-2028.7z
			 M-1067.7-2028.4c-0.2,0-0.4,0.1-0.5,0.1c-0.2,0.1-0.3,0.2-0.4,0.4c-0.1,0.2-0.1,0.3-0.1,0.5c0,0.2,0.1,0.4,0.1,0.5
			c0.1,0.2,0.2,0.3,0.4,0.4c0.2,0.1,0.3,0.1,0.5,0.1c0.2,0,0.4-0.1,0.5-0.1c0.2-0.1,0.3-0.2,0.4-0.4c0.1-0.2,0.1-0.3,0.1-0.5
			c0-0.2-0.1-0.4-0.1-0.5c-0.1-0.2-0.2-0.3-0.4-0.4C-1067.4-2028.3-1067.5-2028.4-1067.7-2028.4z M-1068.4-2026.6v-1.4h0.8
			c0.1,0,0.2,0,0.2,0.1c0.1,0.1,0.1,0.1,0.1,0.1c0,0,0.1,0.1,0.1,0.2c0,0.1,0,0.2-0.1,0.2c-0.1,0.1-0.2,0.1-0.3,0.1
			c0.1,0,0.1,0.1,0.1,0.1l0.1,0.1c0,0.1,0.1,0.1,0.1,0.2l0.2,0.3h-0.4l-0.1-0.2c0-0.1-0.1-0.2-0.2-0.3c0,0-0.1-0.1-0.2-0.1h-0.1v0.6
			L-1068.4-2026.6L-1068.4-2026.6z M-1068.1-2027.4h0.4c0.1,0,0.1-0.1,0.1-0.1c0-0.1,0.1-0.1,0.1-0.1s0-0.1-0.1-0.1
			c0-0.1-0.1-0.1-0.1-0.1h-0.4V-2027.4z"/>
	</g>
	<g id="Group_93" transform="translate(0 0)">
		<g id="Group_91">
			<path id="Path_255" class="st1" d="M-1068.9-2027.6h1.6l9.1,13.4l9.1-13.5h1.6v22.8h-1.7v-19.7l-9,13.2h-0.2l-9.1-13.2v19.9h-1.6
				v-22.8H-1068.9z"/>
			<path id="Path_256" class="st1" d="M-1043.6-2009.7L-1043.6-2009.7c0-3.5,3-5.4,7.3-5.4c1.8,0,3.7,0.2,5.4,0.7v-0.7
				c0-3.3-2-5-5.4-5c-1.8,0-3.6,0.5-5.2,1.3l-0.6-1.3c1.8-1,3.8-1.5,5.9-1.5c1.9-0.1,3.8,0.5,5.2,1.8c1.2,1.3,1.8,3,1.7,4.7v10.4
				h-1.5v-2.8c-1.4,2.1-3.8,3.3-6.3,3.2C-1040.2-2004.5-1043.6-2006.2-1043.6-2009.7z M-1030.8-2011v-1.9c-1.8-0.5-3.7-0.8-5.6-0.8
				c-3.5,0-5.4,1.5-5.4,3.9v0.1c0,2.4,2.3,3.9,4.8,3.9C-1033.7-2006-1030.8-2008-1030.8-2011z"/>
			<path id="Path_257" class="st1" d="M-1025.5-2021.5h1.6v3.1c1.1-2.2,3.5-3.6,6-3.5c4.2,0,6.7,2.9,6.7,6.9v10.2h-1.6v-9.9
				c0-3.4-1.9-5.6-5.3-5.6c-3.1,0-5.7,2.5-5.7,5.6c0,0.1,0,0.2,0,0.3v9.5h-1.6V-2021.5z"/>
			<path id="Path_258" class="st1" d="M-1008.2-2009.7L-1008.2-2009.7c0-3.5,3-5.4,7.3-5.4c1.8,0,3.7,0.2,5.4,0.7v-0.7
				c0-3.3-2.1-5-5.4-5c-1.8,0-3.6,0.5-5.2,1.3l-0.6-1.3c1.8-1,3.9-1.5,5.9-1.5c1.9-0.1,3.8,0.5,5.2,1.8c1.2,1.3,1.8,3,1.7,4.7v10.4
				h-1.5v-2.8c-1.4,2.1-3.8,3.3-6.3,3.2C-1004.9-2004.5-1008.2-2006.2-1008.2-2009.7z M-995.4-2011v-1.9c-1.8-0.5-3.7-0.8-5.6-0.8
				c-3.5,0-5.4,1.5-5.4,3.9v0.1c0,2.4,2.3,3.9,4.8,3.9C-998.3-2006-995.4-2008-995.4-2011z"/>
			<path id="Path_259" class="st1" d="M-989.8-2002.1l0.9-1.3c1.9,1.5,4.3,2.3,6.7,2.3c3.9,0,6.5-2.2,6.5-6.4v-2.4
				c-1.5,2.4-4.1,3.8-6.9,3.9c-4.3,0.1-7.9-3.4-8-7.7c0,0,0,0,0,0v-0.1c0-4.4,3.6-7.9,8-7.8c0,0,0,0,0,0c2.8,0,5.4,1.4,6.9,3.7v-3.3
				h1.6v14c0.1,2.1-0.7,4.1-2.1,5.6c-1.6,1.5-3.8,2.3-6.1,2.2C-984.9-1999.6-987.5-2000.5-989.8-2002.1z M-975.5-2014L-975.5-2014
				c0-3.9-3.4-6.4-6.9-6.4c-3.4-0.2-6.2,2.4-6.4,5.8c0,0.2,0,0.3,0,0.5v0.1c0,3.5,2.8,6.3,6.2,6.3c0.1,0,0.1,0,0.2,0
				C-978.9-2007.6-975.5-2010.2-975.5-2014z"/>
			<path id="Path_260" class="st1" d="M-970.3-2013.1L-970.3-2013.1c0-4.9,3.4-8.7,7.8-8.7c4.7,0,7.6,3.7,7.6,8.7v0.7h-13.8
				c0,3.6,2.9,6.5,6.5,6.6c2.2,0,4.3-0.9,5.7-2.6l1.1,0.9c-1.7,2-4.2,3.2-6.9,3.2C-966.8-2004.5-970.4-2008.3-970.3-2013.1
				C-970.3-2013-970.3-2013.1-970.3-2013.1z M-956.5-2014c-0.2-3.3-2.1-6.4-6-6.4c-3.2,0-5.8,2.8-6.2,6.4H-956.5z"/>
			<path id="Path_261" class="st1" d="M-950.9-2021.5h1.6v4.7c1.2-3,4.1-5,7.4-5v1.8h-0.2c-3.9,0-7.2,2.9-7.2,8.3v6.9h-1.6V-2021.5z
				"/>
			<path id="Path_262" class="st1" d="M-938.1-2027.6h9.3c5.4,0,8.7,3.2,8.7,7.8v0.1c0,5.3-4.1,8-9.3,8h-3.9v6.9h-5v-22.8
				L-938.1-2027.6L-938.1-2027.6z M-929.1-2016.2c2.5,0,4-1.5,4-3.4v-0.1c0-2.2-1.5-3.4-4.1-3.4h-3.9v6.9L-929.1-2016.2
				L-929.1-2016.2z"/>
			<path id="Path_263" class="st1" d="M-917.2-2028.7h5v23.8h-5V-2028.7z"/>
			<path id="Path_264" class="st1" d="M-909-2011v-11.3h5v9.7c0,2.3,1.1,3.6,3,3.6c1.9,0,3.1-1.2,3.1-3.6v-9.7h5v17.5h-5v-2.5
				c-1.1,1.8-3.1,2.8-5.2,2.8C-906.9-2004.5-909-2007-909-2011z"/>
			<path id="Path_265" class="st1" d="M-890.6-2007.2l2.1-3.2c1.6,1.2,3.5,1.9,5.4,2.1c1.5,0,2-0.5,2-1.3v-0.1
				c0-1.1-1.7-1.5-3.6-2.1c-2.5-0.7-5.2-1.9-5.2-5.2l0,0c0-3.6,2.9-5.6,6.4-5.6c2.3,0,4.6,0.7,6.5,2.1l-1.9,3.4
				c-1.4-0.9-3-1.5-4.7-1.6c-1.2,0-1.8,0.5-1.8,1.2v0.1c0,0.9,1.6,1.5,3.6,2.1c2.5,0.9,5.3,2,5.3,5.2l0,0c0,3.9-2.9,5.6-6.7,5.6
				C-885.9-2004.5-888.5-2005.4-890.6-2007.2z"/>
		</g>
	</g>
</g>
<g id="proxyclick-logo-fullcolour" transform="translate(987.95 2439.7)">
	<rect id="Rectangle_44" x="-782.9" y="-1891.9" class="st2" width="4.6" height="26.2"/>
	<path id="Path_364" class="st2" d="M-771.5-1892.4c-1.6,0-2.8,1.3-2.8,2.8c0,1.6,1.3,2.9,2.8,2.9s2.8-1.3,2.8-2.9
		C-768.6-1891.1-769.9-1892.4-771.5-1892.4z"/>
	<path id="Path_365" class="st2" d="M-794.6-1884c-5.2,0.2-9.3,4.5-9.1,9.7c0.2,5,4.2,9.1,9.3,9.1c3.7,0.2,7.1-2.2,8.2-5.8l-4-1.3
		c-0.6,1.8-2.3,3.1-4.2,3c-2.8,0-4.8-2.1-4.8-5.3c0-3.6,2.4-5.2,4.7-5.2c1.9-0.1,3.6,1.2,4.1,3l4.1-1.3
		C-787.1-1880.9-789.7-1884-794.6-1884z"/>
	<rect id="Rectangle_45" x="-773.8" y="-1883.4" class="st2" width="4.6" height="17.7"/>
	<path id="Path_366" class="st2" d="M-809-1883.4l-4.5,10.8l-4.9-10.8h-5.1l7.6,15.6l0,0.1l-4.2,9.1h4.8l11.2-24.8
		C-804.1-1883.4-809-1883.4-809-1883.4z"/>
	<path id="Path_367" class="st2" d="M-738.1-1872.5l4.7,6.8h5.6l-7.3-10.3l7-7.4h-5.9l-6.5,7v-15.4h-4.6v26.2h4.6v-4.7l2.2-2.3
		C-738.3-1872.7-738.1-1872.5-738.1-1872.5z"/>
	<path id="Path_368" class="st2" d="M-756.7-1884c-5.2,0.2-9.3,4.5-9.1,9.7c0.2,5,4.2,9.1,9.3,9.1c3.7,0.2,7.1-2.2,8.2-5.8l-4-1.3
		c-0.6,1.8-2.3,3.1-4.2,3c-2.8,0-4.8-2.1-4.8-5.3c0-3.6,2.4-5.2,4.7-5.2c1.9-0.1,3.6,1.2,4.1,3l4.1-1.3
		C-749.1-1880.9-751.7-1884-756.7-1884z"/>
	<path id="Path_369" class="st2" d="M-890.7-1884c-5-0.1-9.1,3.8-9.3,8.8c0,0.2,0,0.4,0,0.6v16h4.6v-7.7l0.2,0.1
		c1.4,0.7,2.9,1,4.4,1c5.2-0.1,9.3-4.4,9.3-9.6C-881.5-1879.8-885.6-1883.9-890.7-1884L-890.7-1884z M-890.7-1869.3
		c-2.3,0-4.6-1.6-4.6-5.3s2.3-5.3,4.6-5.3c3.3,0,4.7,2.7,4.7,5.3S-887.5-1869.3-890.7-1869.3z"/>
	<path id="Path_370" class="st2" d="M-868.3-1879.3v-4.6c-3.2,0-5.7,0.9-7.4,2.6c-1.6,1.8-2.4,4.1-2.3,6.5v9.2h4.6v-9.3
		c-0.1-1.1,0.2-2.2,0.9-3.1C-871.3-1879-869.8-1879.4-868.3-1879.3z"/>
	<path id="Path_371" class="st2" d="M-856.7-1884c-5-0.1-9.1,3.8-9.3,8.8c0,0.2,0,0.4,0,0.6c-0.1,5.1,4,9.3,9.2,9.4
		c5.1,0.1,9.3-4,9.4-9.2c0-0.1,0-0.2,0-0.3c0.2-5-3.7-9.2-8.6-9.4C-856.3-1884-856.5-1884-856.7-1884z M-856.7-1869.3
		c-2.3,0-4.7-1.7-4.7-5.3c0-2.6,1.5-5.3,4.7-5.3c3.3,0,4.7,2.7,4.7,5.3C-852-1872-853.4-1869.3-856.7-1869.3z"/>
	<path id="Path_372" class="st2" d="M-839.4-1880.8c-0.7-1-1.4-2.1-1.8-2.6h-5.4l4.5,6.1c1.2,1.7,1.2,3.9,0,5.5l-4.5,6h5.1l2.9-4.2
		c1.9-2.8,2-6.5,0.1-9.3C-838.8-1880-839.2-1880.5-839.4-1880.8z"/>
	<path id="Path_373" class="st2" d="M-832.4-1880.8c0.7-1,1.4-2.1,1.8-2.6h5.4l-4.5,6.1c-1.2,1.7-1.2,3.9,0,5.5l4.5,6h-5.1l-3-4.2
		c-1.9-2.8-2-6.5-0.1-9.3C-833-1880-832.6-1880.5-832.4-1880.8z"/>
</g>
<g id="Group_145" transform="translate(954 2469.564)">
	<g id="Group_144" transform="translate(6 5.436)">
		<path id="Path_39751" class="st2" d="M-847.2-2176.9l-8.8-8.9l-2.7,2.7l3.6,3.6l-0.2,0.2c-1.1,0.7-2.4,1.1-3.8,1.1
			c-4.1,0-7.5-3.4-7.4-7.6c0-0.1,0-0.1,0-0.2v-0.1c-0.2-4.1,3-7.5,7.1-7.7c0.1,0,0.2,0,0.3,0c4.1,0,7.5,3.4,7.4,7.6
			c0,0.1,0,0.1,0,0.2v0.1c0,0.9-0.2,1.8-0.5,2.7l2.9,3c1-1.7,1.6-3.7,1.6-5.7v-0.1c-0.1-6.3-5.2-11.3-11.5-11.2
			c-6.2,0.1-11.2,5.1-11.2,11.3v0.1c-0.1,6.1,4.8,11.1,10.9,11.2c0,0,0,0,0,0h0.5c2.4,0,4.7-0.7,6.7-2l0,0l2.6,2.6L-847.2-2176.9z"
			/>
		<path id="Path_39752" class="st2" d="M-875.8-2197h3.8v21.8h-3.8L-875.8-2197z"/>
		<g id="Group_6484" transform="translate(0 0.275)">
			<path id="Path_39753" class="st2" d="M-960-2178.7l2.3-2.7c1.8,1.8,4.3,2.8,6.9,2.8c2.3,0,3.8-1.1,3.8-2.7v-0.1
				c0-1.6-0.9-2.4-4.9-3.3c-4.6-1.1-7.3-2.5-7.3-6.5v-0.1c0-3.8,3.1-6.3,7.4-6.3c2.9-0.1,5.7,0.9,7.9,2.7l-2,2.9
				c-1.6-1.4-3.7-2.2-5.9-2.3c-2.3,0-3.5,1.2-3.5,2.6v0.1c0,1.6,1,2.4,5.2,3.4c4.6,1.1,7,2.7,7,6.3v0.1c0,4.1-3.2,6.5-7.8,6.5
				C-954.3-2175.2-957.5-2176.4-960-2178.7z"/>
			<path id="Path_39754" class="st2" d="M-941.6-2191.9h3.8v2.7c1.2-1.9,3.3-3.1,5.6-3.1c3.9,0,7.7,3.1,7.7,8.5v0.1
				c0,5.4-3.8,8.5-7.7,8.5c-2.2,0-4.3-1.1-5.6-2.9v7.5h-3.8V-2191.9z M-928.4-2183.7L-928.4-2183.7c0-3.2-2.1-5.3-4.7-5.3
				c-2.7,0.1-4.9,2.3-4.8,5c0,0.1,0,0.1,0,0.2v0.1c-0.2,2.7,1.9,5.1,4.6,5.2c0.1,0,0.1,0,0.2,0
				C-930.6-2178.5-928.4-2180.5-928.4-2183.7z"/>
			<path id="Path_39755" class="st2" d="M-912.4-2175.5v-2c-1.3,1.6-3.3,2.4-5.3,2.4c-3.1,0-5.9-1.8-5.9-5.1v-0.1
				c0-3.6,2.8-5.4,6.7-5.4c1.5,0,3.1,0.2,4.5,0.7v-0.3c0-2.3-1.4-3.5-4.1-3.5c-1.6,0-3.2,0.4-4.7,1l-1-3.1c1.9-0.9,4.1-1.4,6.3-1.3
				c4.9,0,7.2,2.6,7.2,7v9.7L-912.4-2175.5L-912.4-2175.5z M-912.3-2182.4c-1.2-0.4-2.5-0.7-3.8-0.6c-2.4,0-3.8,0.9-3.8,2.6v0.1
				c0,1.6,1.4,2.4,3.2,2.4c2.5,0,4.4-1.4,4.4-3.4L-912.3-2182.4L-912.3-2182.4z"/>
			<g id="Group_6483" transform="translate(52.704 5.246)">
				<g id="Group_6482" transform="translate(13.863 0.162)">
					<path id="Path_39756" class="st2" d="M-959.8-2189L-959.8-2189c0-4.8,3.4-8.6,8-8.6c5.2,0,7.8,4.1,7.8,8.9c0,0.4,0,0.7-0.1,1.1
						h-12.1c0.2,2.4,2.3,4.2,4.7,4.2c1.7,0,3.3-0.7,4.5-2l2.2,2c-1.6,2-4.1,3.1-6.7,3.1c-4.5,0.1-8.3-3.4-8.5-8c0,0,0,0,0,0
						C-959.9-2188.6-959.8-2188.8-959.8-2189z M-947.7-2190.3c-0.2-2.4-1.6-4.3-4.2-4.3c-2.3,0-3.9,1.8-4.2,4.3H-947.7z"/>
				</g>
				<path id="Path_39757" class="st2" d="M-947.2-2185.6c-1,1.2-2.5,1.9-4.1,1.9c-2.8,0-5-2.3-4.9-5.1c0-0.1,0-0.2,0-0.2v-0.1
					c0-2.9,2-5.2,4.7-5.2c1.6,0,3.2,0.8,4.2,2c0.3-1.2,0.8-2.3,1.6-3.2c-1.6-1.4-3.7-2.2-5.8-2.1c-4.7,0-8.5,3.7-8.5,8.4v0.2
					c-0.1,4.6,3.6,8.4,8.2,8.5c0,0,0.1,0,0.1,0h0.2c2.1,0.1,4.2-0.7,5.8-2.2C-946.3-2183.6-946.8-2184.6-947.2-2185.6z"/>
			</g>
		</g>
		<g id="Group_143" transform="translate(111.817 0)">
			<path id="Path_436" class="st2" d="M-958.6-2197.7c0.2,0,0.5,0.1,0.7,0.2c0.2,0.1,0.4,0.3,0.5,0.5c0.2,0.4,0.2,1,0,1.4
				c-0.1,0.2-0.3,0.4-0.5,0.5c-0.4,0.2-1,0.2-1.4,0c-0.2-0.1-0.4-0.3-0.5-0.5c-0.2-0.4-0.2-1,0-1.4c0.1-0.2,0.3-0.4,0.5-0.5
				C-959.1-2197.6-958.9-2197.7-958.6-2197.7z M-958.6-2197.4c-0.2,0-0.4,0-0.6,0.1c-0.2,0.1-0.3,0.2-0.4,0.4
				c-0.2,0.3-0.2,0.8,0,1.1c0.1,0.2,0.2,0.3,0.4,0.4c0.3,0.2,0.8,0.2,1.1,0c0.2-0.1,0.3-0.2,0.4-0.4c0.2-0.3,0.2-0.8,0-1.1
				c-0.1-0.2-0.2-0.3-0.4-0.4C-958.2-2197.3-958.4-2197.4-958.6-2197.4L-958.6-2197.4z M-959.2-2195.5v-1.5h0.3c0.3,0,0.4,0,0.5,0
				c0.1,0,0.2,0,0.2,0.1c0.1,0,0.1,0.1,0.1,0.1c0,0.1,0.1,0.1,0.1,0.2c0,0.1,0,0.2-0.1,0.3c-0.1,0.1-0.2,0.1-0.3,0.1
				c0,0,0.1,0,0.1,0.1c0,0,0.1,0.1,0.1,0.1c0,0,0,0.1,0.1,0.2l0.2,0.3h-0.4l-0.1-0.2c-0.1-0.1-0.1-0.2-0.2-0.3
				c-0.1,0-0.1-0.1-0.2-0.1h-0.1v0.6L-959.2-2195.5z M-958.9-2196.4h0.1c0.1,0,0.2,0,0.3,0c0,0,0.1,0,0.1-0.1c0,0,0-0.1,0-0.1
				c0,0,0-0.1,0-0.1c0,0-0.1-0.1-0.1-0.1c-0.1,0-0.2,0-0.3,0h-0.1L-958.9-2196.4z"/>
		</g>
	</g>
</g>
</svg>
